<svg width="819" height="818" viewBox="0 0 819 818" fill="none" xmlns="http://www.w3.org/2000/svg">
<path d="M532.805 751.987L543.778 726.445C543.778 726.445 628.145 712.235 666.64 658.633C681.072 638.538 685.43 617.64 676.894 594.419C667.918 570.005 645.413 561.143 623.108 560.603C604.234 560.147 579.215 575.173 579.215 575.173C579.215 575.173 582.454 550.066 577.057 537.4C568.242 516.714 484.852 509.456 419.117 508.8C349.364 508.103 256.32 515.815 238.512 540.997C227.389 556.725 233.466 603.232 243.009 647.841M532.805 751.987C532.805 751.987 450.061 756.877 396.991 756.664C349.468 756.473 274.848 750.188 274.848 750.188M532.805 751.987C532.805 751.987 590.62 749.705 626.885 742.813C666.64 735.259 715.618 726.445 719.347 704.86M274.848 750.188C274.848 750.188 260.458 721.229 250.744 681.297C248.964 673.978 244.829 656.351 243.009 647.841M274.848 750.188C274.848 750.188 100 732.55 100 697.846M719.347 704.86C723.075 683.276 661.064 667.087 661.064 667.087M719.347 704.86C719.347 704.86 717.006 720.036 701.718 735.079C684.08 752.434 668.978 765.837 607.278 790.839C545.577 815.841 481.358 815.841 402.747 815.841C311.151 815.841 241.39 806.668 183.107 776.45C161.45 765.221 130.357 745.012 116.729 729.683C99.9479 710.806 100 697.846 100 697.846M625.806 656.115C625.806 656.115 606.816 651.309 595.225 648.92C583.634 646.532 565.364 644.244 565.364 644.244M100 697.846C100 665.828 243.009 647.841 243.009 647.841M565.364 682.556C576.157 688.492 590.548 679.139 610.336 667.087C623.554 659.037 637.319 648.201 643.974 634.89C648.133 626.573 649.384 618.711 645.953 610.068C640.999 597.588 629.224 593.7 617.711 594.419C597.225 595.699 571.48 617.623 571.48 617.623C571.48 617.623 554.571 676.621 565.364 682.556Z" stroke="#F2A354" stroke-width="4"/>
<path d="M408.324 559.704C346.981 559.74 255.241 554.308 253.262 544.415C250.031 528.26 346.963 519.016 408.324 519.053C469.406 519.09 563.414 527.147 563.385 539.558C563.357 551.97 469.388 559.668 408.324 559.704Z" stroke="#F2A354" stroke-width="4"/>
<path d="M416.5 487.5C426.5 505 407.812 531.79 404 535C401.542 537.07 409 504 387 489.5C374.14 481.024 339.682 466.54 343 451.5C350.5 417.5 445.16 439.286 421.967 407.401C406.567 386.229 353.925 402.606 333.227 386.574C309.681 368.336 350.245 342.207 320.938 336.901C290.975 331.477 287.692 353.33 241.64 357.598C220.668 359.542 205.717 354.513 194.165 336.901C174.107 306.322 201.409 264.72 169.457 251.913C145.035 242.125 128.491 259.362 99.7322 268.989C68.8151 279.337 44.625 280.048 25.6092 272.223C9.17462 265.459 -20.0015 227.189 20.5642 199.653C59.6309 173.135 116.592 151.774 135.953 92.6747C177.736 -34.8717 384.323 -10.5526 360.133 45.7178C330.977 113.541 377.209 134.845 437.232 96.6846C478.246 70.6093 531.799 128.572 594.404 128.248C647.152 127.975 689.904 110.006 727.385 104.575C781.846 96.6846 833.331 109.362 815.35 159.164C806.566 183.494 779 181.672 760.76 196.678C730.166 221.847 747.565 272.481 687.801 269.635C662.857 268.448 653.133 250.62 631.659 260.063C605.714 271.473 631.671 311.244 609.797 329.269C575.623 357.432 544.628 331.568 504.499 312.841C477.334 300.164 450.685 305.079 443.7 322.542C435.158 343.897 450.727 360.299 471.512 370.146C505.085 386.052 547.802 416.088 542.5 438.5C538.221 456.588 520 471 496.5 471C456.811 471 453.919 464.206 421.967 465.5C396 466.551 411.063 477.984 416.5 487.5Z" fill="#D9D9D9"/>
</svg>
