<svg width="878" height="446" viewBox="0 0 878 446" fill="none" xmlns="http://www.w3.org/2000/svg">
<g clip-path="url(#clip0_1101_2)">
<path d="M414.5 341.7C415.1 341.7 415.7 341.8 416.3 341.8V141.7H622.3V138.7H413.2V341.7C413.6 341.7 414 341.7 414.5 341.7Z" fill="#87749A"/>
<path d="M622.7 271.8L576.5 242.7L622.2 213.7V211.4L574.6 241.6L415.7 141.5L414.6 143.2L572.8 242.7L415.9 342.2H419.6L574.6 243.9L622 273.7C622.1 273 622.4 272.4 622.7 271.8Z" fill="#87749A"/>
<path d="M490.7 23.7C486 23.7 482.2 19.9 482.2 15.2C482.2 10.5 486 6.7 490.7 6.7C495.4 6.7 499.2 10.5 499.2 15.2C499.2 19.9 495.4 23.7 490.7 23.7ZM490.7 9.7C487.7 9.7 485.2 12.2 485.2 15.2C485.2 18.2 487.7 20.7 490.7 20.7C493.7 20.7 496.2 18.2 496.2 15.2C496.2 12.2 493.7 9.7 490.7 9.7Z" fill="#F3881D"/>
<path d="M262.7 83.7C252.5 83.7 244.2 75.4 244.2 65.2C244.2 55 252.5 46.7 262.7 46.7C272.9 46.7 281.2 55 281.2 65.2C281.2 75.4 272.9 83.7 262.7 83.7ZM262.7 49.7C254.2 49.7 247.2 56.7 247.2 65.2C247.2 73.7 254.2 80.7 262.7 80.7C271.2 80.7 278.2 73.7 278.2 65.2C278.2 56.7 271.2 49.7 262.7 49.7Z" fill="#87749A"/>
<path d="M372.2 53.7H291.2V57.7H372.2V53.7Z" fill="#87749A"/>
<path d="M354.2 73.7H291.2V77.7H354.2V73.7Z" fill="#87749A"/>
<path d="M735.2 77.7H665.2V52.7H735.2V77.7ZM668.2 74.7H732.2V55.7H668.2V74.7Z" fill="#87749A"/>
<path d="M655.2 77.7H585.2V52.7H655.2V77.7ZM588.2 74.7H652.2V55.7H588.2V74.7Z" fill="#87749A"/>
<path d="M573.7 54.2H506.7V76.2H573.7V54.2Z" stroke="#87749A" stroke-width="3"/>
<path d="M863.2 418.7H634.2V111.7H863.2V418.7ZM637.2 415.7H860.2V114.7H637.2V415.7Z" fill="#F3881D"/>
<path d="M749.2 104.7C747.5 104.7 746.2 103.4 746.2 101.7C746.2 100 747.5 98.7 749.2 98.7C750.9 98.7 752.2 100 752.2 101.7C752.2 103.4 750.8 104.7 749.2 104.7Z" fill="#F3881D"/>
<path d="M749.2 433.2C751.685 433.2 753.7 431.185 753.7 428.7C753.7 426.215 751.685 424.2 749.2 424.2C746.715 424.2 744.7 426.215 744.7 428.7C744.7 431.185 746.715 433.2 749.2 433.2Z" stroke="#F3881D" stroke-width="3"/>
<path d="M658.5 149.3C651.7 149.3 646.2 143.8 646.2 137C646.2 130.2 651.7 124.7 658.5 124.7C665.3 124.7 670.8 130.2 670.8 137C670.8 143.8 665.3 149.3 658.5 149.3ZM658.5 127.7C653.4 127.7 649.2 131.9 649.2 137C649.2 142.1 653.4 146.3 658.5 146.3C663.6 146.3 667.8 142.1 667.8 137C667.8 131.9 663.6 127.7 658.5 127.7Z" fill="#87749A"/>
<path d="M721.2 130.7H676.9V132.9H721.2V130.7Z" fill="#87749A"/>
<path d="M711.4 141.7H676.9V143.9H711.4V141.7Z" fill="#87749A"/>
<path d="M850.2 306.1H646.2V173.7H850.2V306.1ZM649.2 303.1H847.2V176.7H649.2V303.1Z" fill="#87749A"/>
<path d="M850.5 302.3L750.4 239.2L849.8 176.1L848.7 174.5L748.5 238L648.1 174.8L647 176.4L746.6 239.2L646.5 302.7L647.6 304.3L748.5 240.4L849.4 303.9L850.5 302.3Z" fill="#87749A"/>
<path d="M850.2 148.7H826.2V124.7H850.2V148.7ZM829.2 145.7H847.2V127.7H829.2V145.7Z" fill="#87749A"/>
<path d="M686.2 321.7H735.2V327.7H686.2V321.7Z" fill="#87749A"/>
<path d="M743.2 321.7H811.2V327.7H743.2V321.7Z" fill="#87749A"/>
<path d="M706.2 337.7H790.2V343.7H706.2V337.7Z" fill="#87749A"/>
<path d="M244.2 221.7H276.2V225.7H244.2V221.7Z" fill="#87749A"/>
<path d="M284.2 221.7H333.2V225.7H284.2V221.7Z" fill="#87749A"/>
<path d="M341.2 221.7H377.2V225.7H341.2V221.7Z" fill="#87749A"/>
<path d="M244.2 241.7H342.2V245.7H244.2V241.7Z" fill="#87749A"/>
<path d="M244.2 261.7H299.2V265.7H244.2V261.7Z" fill="#87749A"/>
<path d="M307.2 261.7H362.2V265.7H307.2V261.7Z" fill="#87749A"/>
<path d="M244.2 281.7H319.2V285.7H244.2V281.7Z" fill="#87749A"/>
<path d="M244.2 161.7H293.2V169.7H244.2V161.7Z" fill="#87749A"/>
<path d="M301.2 161.7H369.2V169.7H301.2V161.7Z" fill="#87749A"/>
<path d="M244.2 181.7H328.2V189.7H244.2V181.7Z" fill="#87749A"/>
<mask id="mask0_1101_2" style="mask-type:luminance" maskUnits="userSpaceOnUse" x="646" y="377" width="205" height="39">
<path d="M850.2 377.7H646.2V415.7H850.2V377.7Z" fill="white"/>
</mask>
<g mask="url(#mask0_1101_2)">
<path d="M708.2 418.1H646.2V377.7H708.2V418.1ZM649.2 416.3L705.2 416.4V380.7H649.2V416.3Z" fill="#87749A"/>
<path d="M779.2 417.8L717.2 418.1V377.7H779.2V417.8ZM720.2 416.2H776.1V380.7H720.1L720.2 416.2Z" fill="#87749A"/>
<path d="M850.2 418.3L788.2 418V377.6H850.2V418.3ZM791.2 416.1L847.2 416.3V380.7H791.2V416.1Z" fill="#87749A"/>
</g>
<path d="M157.8 275.6C159 284.8 143.4 289.2 143.4 289.2C143.4 289.2 145.3 308.7 137.3 315.4C129.3 322.1 120.9 318.9 110.6 317.1C98.3 315 86.9 310.1 76.5 303.1C64.6001 295 63.8 289.2 55.1 277.7C48.3 268.7 45.4001 263 40.7001 252.8C34.7001 239.8 29.3 217.8 29.3 217.8C29.3 217.8 47 226 58.6 230.5C73.9001 236.4 82.6 239.4 98.4 243.6C110.7 246.9 117.1 246.1 129.9 246.7C140 247.1 152.8 251 154 260.3C155 269.5 156.6 266.4 157.8 275.6Z" fill="url(#paint0_linear_1101_2)"/>
<path d="M115.8 213.1C123.4 209.6 123.2 186.4 123.2 186.4C123.2 186.4 133.5 184.6 134.6 180.7C136.2 174.6 134.4 171.8 128.9 162.8C123.8 154.4 119.1 150.5 110.5 145.7C96.6 137.9 85.8 139.8 69.8 140.9C48.7 142.3 36.6 144 22.2 159.7C7.80003 175.4 7.10002 182.3 -0.0999756 198.2C-0.0999756 198.2 20.4 191.4 34 190.3C46.6 189.3 55 186.5 66.4 192.1C76 196.8 76 206.8 85.6 211.3C96.3 216.4 105.1 218 115.8 213.1Z" fill="url(#paint1_linear_1101_2)"/>
<path d="M622.2 340.2H228.7V30.7H749.2V88.6H753.2V26.7H224.7V344.2H622.2V340.2Z" fill="#F3881D"/>
<path d="M867.2 443.7H631.2C625.1 443.7 620.2 438.8 620.2 432.7V98.7C620.2 92.6 625.1 87.7 631.2 87.7H867.2C873.3 87.7 878.2 92.6 878.2 98.7V432.7C878.2 438.8 873.3 443.7 867.2 443.7ZM631.2 91.7C627.3 91.7 624.2 94.8 624.2 98.7V432.7C624.2 436.6 627.3 439.7 631.2 439.7H867.2C871.1 439.7 874.2 436.6 874.2 432.7V98.7C874.2 94.8 871.1 91.7 867.2 91.7H631.2Z" fill="#F3881D"/>
<path d="M119.3 185.1L117.7 187.7L119.3 185.1Z" fill="#F3881D"/>
<path d="M525.7 365.7H455.7H244L243.1 369.7H453.7V420.7H422.2V438.2H558.7V420.7H527.7V369.7H622.2V365.7H525.7ZM554.7 424.7V434.2H426.2V424.7H457.7V369.7H523.7V424.7H554.7Z" fill="#F3881D"/>
<path d="M779.8 3.5C776.8 -0.200003 770.9 -0.300003 770.2 -0.300003H209.7C209.4 -0.300003 203.5 -0.300003 200.2 3.4C197.2 6.7 197.2 11.1 197.2 11.2L197.7 355.2H201.7L201.2 11.2C201.2 11.2 201.3 8.2 203.2 6C204.9 4.1 208.5 3.7 209.7 3.7H770.2C771.4 3.7 775.1 4.1 776.6 5.9C777.8 7.4 778.1 10.1 778.2 11V89.7H782.2V11C782.2 10.5 782.1 6.4 779.8 3.5Z" fill="#F3881D"/>
<path d="M180.5 240.6C182.5 246.3 188 246.7 191 252C197.5 263.3 183.5 275.3 191.9 285.2C199.3 294.1 209 296.1 220.3 293.5C234.2 290.3 235.6 277.2 243.9 265.5C253.2 252.5 252.6 240.8 264.5 230.1C271.9 223.4 276.7 219.3 286.4 217C298.9 214 318.8 222.2 318.8 222.2C318.8 222.2 315.6 207.6 309.6 200.8C298.1 187.6 282 183.8 264.6 185.7C248.3 187.4 242.5 201.3 227.4 207.8C209.2 215.8 184.7 208.4 180.6 227.9C179.5 232.8 178.9 236 180.5 240.6Z" fill="url(#paint2_linear_1101_2)"/>
<path d="M160 120.4C162.4 126.7 172.7 132.2 172.7 132.2C172.7 132.2 165.6 148.8 171.8 155.4C178.1 162.1 186.9 158.9 195.4 155.4C205.9 151 204.7 139.5 213.8 132.7C223.6 125.3 231.1 123.7 243.1 120.9C256.1 117.9 277.2 118.7 277.2 118.7C277.2 118.7 256.1 101.7 240 96.4L239.5 96.2C218.8 89.4 202.7 84 183.6 94.6C171.6 101.2 155.1 107.6 160 120.4Z" fill="url(#paint3_linear_1101_2)"/>
<path d="M298.3 208.8L300.8 210L303.4 204.8L300.5 203.4C300.3 203.3 300.1 203.2 299.9 203.1C299.3 202.8 298.5 202.5 297.5 202.1C295.5 201.3 292.6 200.2 289.2 199.3C282.5 197.4 273.5 196 265 198.1C254.4 200.8 248.7 207.3 243.7 214.1C238.7 221 234.6 227.7 227 233C221.3 237 216 238.8 210.5 241.1C205.1 243.3 199.1 246.2 193.4 251.3L193.1 251.5C188.3 256 183.6 262.5 180.1 268.1C180.1 261.4 179.4 255.2 177.5 249.1C175.1 241.4 171 234 164.5 225.7C161.8 222.3 159.3 218.4 156.9 214C148.3 198.4 143 178.7 145.8 164.3C147.6 155.2 151.4 150.6 156.3 147C158.9 145.1 161.7 143.5 165 141.6C168.1 139.9 170.5 138.6 173.9 136.1L174.9 135.4C189.4 124.7 197.9 118.4 214.8 114.9V115C223.1 113.3 232.7 113.3 240.4 113.7C244.2 113.9 247.5 114.2 249.9 114.5C251.1 114.6 252 114.8 252.6 114.8C252.9 114.8 253.2 114.9 253.3 114.9C253.4 114.9 253.4 114.9 253.5 114.9C253.5 114.9 253.5 114.9 254 111.9C254.5 108.9 254.5 108.9 254.5 108.9C254.5 108.9 254.5 108.9 254.4 108.9C254.4 108.9 254.3 108.9 254.2 108.9C254 108.9 253.8 108.8 253.4 108.8C252.7 108.7 251.8 108.6 250.5 108.4C248.1 108.1 244.7 107.8 240.7 107.6C232.8 107.2 222.6 107.1 213.6 109C195.2 112.7 185.8 119.8 171.3 130.5L162 136.5C158.8 138.3 155.6 140.1 152.8 142.3C146.8 146.7 142.1 152.6 140 163.1H139.9C137.6 174.8 140 188.9 144.8 201.9C144.7 201.8 144.7 201.8 144.6 201.7C137.8 195.3 128.8 187.5 120.8 182.6L119.8 182C98.5 169.2 84.1 160.5 58.2 162.9L57.4 163C49.2 163.9 40.2 167.3 32.7 170.5C28.9 172.1 25.5 173.7 23.1 174.9C21.9 175.5 20.9999 176 20.2999 176.3C19.9999 176.5 19.7 176.6 19.5 176.7C19.4 176.7 19.2999 176.8 19.2999 176.8C19.2999 176.8 19.3 176.8 19.2 176.8C19.2 176.8 19.2 176.8 20.6 179.4C22 182 22 182 22 182C22 182 22.1 181.9 22.2 181.9C22.4 181.8 22.6 181.7 22.9 181.5C23.5 181.2 24.4 180.7 25.6 180.1C27.9 179 31.0999 177.4 34.7999 175.9C42.2999 172.7 50.8 169.7 58.1 169L58.7999 168.9C82.5 166.7 96.0999 174.7 117.4 187.6L117.7 187.7C125.2 192.2 133.7 199.6 140.5 206C143.9 209.2 146.9 212 148.8 214.2C149.9 215.5 151.2 217 151.9 218C154.6 222.1 157.2 225.9 159.8 229.4C166 237.3 169.7 244.1 171.8 250.9C173.9 257.7 174.4 264.8 174 273.3C173.9 275.5 173.6 277.7 173.2 279.9C172.3 284.6 171 289.4 169.5 295.4C168.4 299.8 167.3 304.8 166.5 310.4C166.4 310.3 166.4 310.2 166.3 310.2C163.6 306.2 160.1 301.3 157 297.7C147.4 286.8 136.9 282.7 126 279.9C115 277.1 104.2 275.6 92.1 269.8C84.1 266 74.2999 259.5 66.2999 254.1C62.2999 251.3 58.9 248.8 56.4 247C55.2 246.1 54.2 245.3 53.5 244.8C53.2 244.5 52.9 244.3 52.7 244.2C52.6 244.1 52.5 244.1 52.5 244C52.5 244 52.5 244 50.7 246.4C48.8 248.7 48.7999 248.7 48.7999 248.7C48.7999 248.7 48.8 248.7 48.9 248.7C48.9 248.7 49 248.8 49.1 248.9C49.3 249 49.5 249.2 49.9 249.5C50.6 250 51.5999 250.8 52.7999 251.7C55.2999 253.6 58.7999 256.1 62.7999 258.9C70.7999 264.5 81 271.2 89.5 275.2C102.2 281.3 114.2 283.1 124.5 285.7C134.8 288.3 143.8 291.9 152.3 301.5C155.2 304.8 158.7 309.7 161.4 313.6C162.7 315.5 163.8 317.3 164.6 318.5C164.9 318.9 165.1 319.3 165.3 319.7C164.4 329.6 164.1 341.5 165.3 356.4L171.3 355.9C170.1 340.9 170.4 329 171.4 319.3L171.6 317.4C172.5 309.2 173.9 302.7 175.3 296.8C176.6 291.4 178 286.3 178.9 281.7C179 281.6 179.1 281.4 179.2 281.2C179.5 280.7 179.9 280 180.4 279C181.4 277.2 182.9 274.6 184.7 271.8C188.3 266.2 192.8 259.8 197.2 255.7C202.2 251.2 207.3 248.6 212.7 246.5C218 244.3 223.9 242.2 230.3 237.9C239 231.9 243.9 223.9 248.5 217.5C253.2 211 257.9 205.9 266.5 203.8C273.6 202 281.4 203.2 287.7 204.9C290.8 205.8 293.4 206.7 295.3 207.5C296.2 207.9 297 208.2 297.4 208.4L298.3 208.8Z" fill="#F3881D"/>
<path d="M227.2 445.6H109.3L88.5 364.7C88.3 364.1 87.4 360.4 90 357C92.7 353.3 97.4 353.2 97.6 353.2H237C237.2 353.2 242.6 353.2 245.2 357.1C247.3 360.3 246.7 363.1 246.5 363.7L227.2 445.6ZM112.4 441.6H224L242.7 362.5C242.7 362.5 243.1 361 241.9 359.3C240.8 357.6 238 357.2 237.1 357.2H97.7C97.7 357.2 94.9 357.3 93.3 359.4C91.8 361.4 92.4 363.6 92.4 363.6V363.7L112.4 441.6Z" fill="#87749A"/>
<g opacity="0.6">
<path d="M221.2 370.7H112.2V373.7H221.2V370.7Z" fill="#87749A"/>
</g>
</g>
<defs>
<linearGradient id="paint0_linear_1101_2" x1="11.8354" y1="267.993" x2="146.605" y2="269.302" gradientUnits="userSpaceOnUse">
<stop stop-color="#31D5DB"/>
<stop offset="1" stop-color="#1A7275"/>
</linearGradient>
<linearGradient id="paint1_linear_1101_2" x1="-19.1155" y1="169.104" x2="122.158" y2="179.981" gradientUnits="userSpaceOnUse">
<stop stop-color="#31D5DB"/>
<stop offset="1" stop-color="#1A7275"/>
</linearGradient>
<linearGradient id="paint2_linear_1101_2" x1="346.747" y1="186.132" x2="197.621" y2="258.728" gradientUnits="userSpaceOnUse">
<stop stop-color="#31D5DB"/>
<stop offset="1" stop-color="#1A7275"/>
</linearGradient>
<linearGradient id="paint3_linear_1101_2" x1="290.573" y1="69.3015" x2="176.825" y2="139.013" gradientUnits="userSpaceOnUse">
<stop stop-color="#31D5DB"/>
<stop offset="1" stop-color="#1A7275"/>
</linearGradient>
<clipPath id="clip0_1101_2">
<rect width="878" height="446" fill="white"/>
</clipPath>
</defs>
</svg>
