<svg width="310" height="313" viewBox="0 0 310 313" fill="none" xmlns="http://www.w3.org/2000/svg">
<g clip-path="url(#clip0_1105_92)">
<path d="M0.000119723 73.609V193.492C-0.000953629 194.357 0.255618 195.203 0.737335 195.922C1.21905 196.642 1.90424 197.203 2.7061 197.534C3.50795 197.865 4.3904 197.951 5.24165 197.782C6.09291 197.613 6.87466 197.196 7.48788 196.584L51.1055 153.124C53.687 150.552 55.1416 147.066 55.1514 143.428V24.6761C55.1529 23.8208 54.9024 22.984 54.4309 22.2692C53.9595 21.5545 53.2879 20.9934 52.4994 20.6554C51.7109 20.3175 50.8402 20.2175 49.9952 20.368C49.1503 20.5185 48.3682 20.9129 47.7461 21.5021L5.05299 61.8706C3.455 63.3828 2.18287 65.2035 1.31415 67.2217C0.445439 69.2398 -0.00165819 71.4131 0.000119723 73.609Z" fill="url(#paint0_linear_1105_92)"/>
<path d="M4.94318 234.29L238.547 1.51848C239.526 0.546017 240.853 0 242.236 0C243.619 0 244.945 0.546017 245.925 1.51848L278.631 34.107C279.116 34.5891 279.502 35.162 279.764 35.7927C280.027 36.4235 280.163 37.0997 280.163 37.7826C280.163 38.4656 280.027 39.1418 279.764 39.7726C279.502 40.4033 279.116 40.9762 278.631 41.4583L7.41468 311.697C6.80612 312.301 6.03197 312.711 5.18979 312.876C4.34761 313.042 3.4751 312.955 2.6822 312.628C1.8893 312.3 1.2115 311.746 0.734208 311.035C0.256921 310.324 0.00150549 309.488 0.000152678 308.633V246.183C-7.59538e-05 243.974 0.436334 241.787 1.28446 239.746C2.13259 237.706 3.37582 235.851 4.94318 234.29Z" fill="url(#paint1_linear_1105_92)"/>
<path d="M234.665 308.067L141.233 218.912C140.739 218.44 140.346 217.874 140.077 217.247C139.809 216.62 139.67 215.945 139.67 215.263C139.67 214.582 139.809 213.907 140.077 213.28C140.346 212.653 140.739 212.087 141.233 211.615L172.493 181.772C173.435 180.873 174.69 180.371 175.994 180.371C177.299 180.371 178.553 180.873 179.496 181.772L307.804 304.282C308.533 304.979 309.035 305.877 309.248 306.861C309.46 307.845 309.372 308.87 308.995 309.804C308.618 310.738 307.969 311.538 307.132 312.101C306.295 312.664 305.308 312.965 304.298 312.965L246.794 312.919C242.275 312.918 237.931 311.18 234.665 308.067Z" fill="url(#paint2_linear_1105_92)"/>
<path d="M187.048 312.92L51.014 312.965C49.9845 312.96 48.9797 312.651 48.126 312.077C47.2723 311.504 46.6079 310.692 46.2165 309.743C45.8251 308.794 45.7241 307.751 45.9262 306.746C46.1283 305.74 46.6246 304.816 47.3525 304.091L114.761 236.925C115.737 235.967 117.052 235.43 118.422 235.43C119.792 235.43 121.108 235.967 122.084 236.925L190.737 304.036C191.469 304.763 191.969 305.69 192.172 306.7C192.375 307.709 192.272 308.757 191.877 309.708C191.482 310.66 190.812 311.473 189.952 312.045C189.092 312.617 188.081 312.921 187.048 312.92Z" fill="url(#paint3_linear_1105_92)"/>
</g>
<defs>
<linearGradient id="paint0_linear_1105_92" x1="27.5758" y1="20.2999" x2="27.5758" y2="197.867" gradientUnits="userSpaceOnUse">
<stop stop-color="white"/>
<stop offset="1" stop-color="#BFB6D0"/>
</linearGradient>
<linearGradient id="paint1_linear_1105_92" x1="140.081" y1="0" x2="140.081" y2="312.958" gradientUnits="userSpaceOnUse">
<stop stop-color="white"/>
<stop offset="1" stop-color="#BFB6D0"/>
</linearGradient>
<linearGradient id="paint2_linear_1105_92" x1="224.516" y1="180.371" x2="224.516" y2="312.965" gradientUnits="userSpaceOnUse">
<stop stop-color="#84FBFF"/>
<stop offset="1" stop-color="#45C0C4"/>
</linearGradient>
<linearGradient id="paint3_linear_1105_92" x1="119.049" y1="235.43" x2="119.049" y2="312.965" gradientUnits="userSpaceOnUse">
<stop stop-color="#FFCC98"/>
<stop offset="1" stop-color="#FFAD5A"/>
</linearGradient>
<clipPath id="clip0_1105_92">
<rect width="310" height="313" fill="white"/>
</clipPath>
</defs>
</svg>
