<svg width="320" height="358" viewBox="0 0 320 358" fill="none" xmlns="http://www.w3.org/2000/svg">
<g clip-path="url(#clip0_1104_182)">
<path d="M158.8 187.6C160 196.8 144.4 201.2 144.4 201.2C144.4 201.2 146.3 220.7 138.3 227.4C130.3 234.1 121.9 230.9 111.6 229.1C99.3001 227 87.9 222.1 77.5 215.1C65.6 207 64.8 201.2 56.1 189.7C49.3 180.7 46.4001 175 41.7001 164.8C35.7001 151.8 30.3 129.8 30.3 129.8C30.3 129.8 48 138 59.6 142.5C74.9001 148.4 83.6 151.4 99.4 155.6C111.7 158.9 118.1 158.1 130.9 158.7C141 159.1 153.8 163 155 172.3C156 181.5 157.6 178.4 158.8 187.6Z" fill="url(#paint0_linear_1104_182)"/>
<path d="M116.8 125.1C124.4 121.6 124.2 98.4 124.2 98.4C124.2 98.4 134.5 96.6 135.6 92.7C137.2 86.6 135.4 83.8 129.9 74.8C124.8 66.4 120.1 62.5 111.5 57.7C97.5999 49.9 86.7999 51.8 70.7999 52.9C49.6999 54.3 37.5999 56 23.1999 71.7C8.79991 87.4 8.0999 94.3 0.899902 110.2C0.899902 110.2 21.3999 103.4 34.9999 102.3C47.5999 101.3 55.9999 98.5 67.3999 104.1C76.9999 108.8 76.9999 118.8 86.5999 123.3C97.2999 128.4 106.1 130 116.8 125.1Z" fill="url(#paint1_linear_1104_182)"/>
<path d="M181.5 152.6C183.5 158.3 189 158.7 192 164C198.5 175.3 184.5 187.3 192.9 197.2C200.3 206.1 210 208.1 221.3 205.5C235.2 202.3 236.6 189.2 244.9 177.5C254.2 164.5 253.6 152.8 265.5 142.1C272.9 135.4 277.7 131.3 287.4 129C299.9 126 319.8 134.2 319.8 134.2C319.8 134.2 316.6 119.6 310.6 112.8C299.1 99.6 283 95.8 265.6 97.7C249.3 99.4 243.5 113.3 228.4 119.8C210.2 127.8 185.7 120.4 181.6 139.9C180.5 144.8 179.9 148 181.5 152.6Z" fill="url(#paint2_linear_1104_182)"/>
<path d="M161 32.4C163.4 38.7 173.7 44.2 173.7 44.2C173.7 44.2 166.6 60.8 172.8 67.4C179.1 74.1 187.9 70.9 196.4 67.4C206.9 63 205.7 51.5 214.8 44.7C224.6 37.3 232.1 35.7 244.1 32.9C257.1 29.9 278.2 30.7 278.2 30.7C278.2 30.7 257.1 13.7 241 8.4L240.5 8.20001C219.8 1.40001 203.7 -3.99999 184.6 6.60001C172.6 13.2 156.1 19.6 161 32.4Z" fill="url(#paint3_linear_1104_182)"/>
<path d="M299.3 120.8L301.8 122L304.4 116.8L301.5 115.4C301.3 115.3 301.1 115.2 300.9 115.1C300.3 114.8 299.5 114.5 298.5 114.1C296.5 113.3 293.6 112.2 290.2 111.3C283.5 109.4 274.5 108 266 110.1C255.4 112.8 249.7 119.3 244.7 126.1C239.7 133 235.6 139.7 228 145C222.3 149 217 150.8 211.5 153.1C206.1 155.3 200.1 158.2 194.4 163.3L194.1 163.5C189.3 168 184.6 174.5 181.1 180.1C181.1 173.4 180.4 167.2 178.5 161.1C176.1 153.4 172 146 165.5 137.7C162.8 134.3 160.3 130.4 157.9 126C149.3 110.4 144 90.7 146.8 76.3C148.6 67.2 152.4 62.6 157.3 59C159.9 57.1 162.7 55.5 166 53.6C169.1 51.9 171.5 50.6 174.9 48.1L175.9 47.4C190.4 36.7 198.9 30.4 215.8 26.9V27C224.1 25.3 233.7 25.3 241.4 25.7C245.2 25.9 248.5 26.2 250.9 26.5C252.1 26.6 253 26.8 253.6 26.8C253.9 26.8 254.2 26.9 254.3 26.9C254.4 26.9 254.4 26.9 254.5 26.9C254.5 26.9 254.5 26.9 255 23.9C255.5 20.9 255.5 20.9 255.5 20.9C255.5 20.9 255.5 20.9 255.4 20.9C255.4 20.9 255.3 20.9 255.2 20.9C255 20.9 254.8 20.8 254.4 20.8C253.7 20.7 252.8 20.6 251.5 20.4C249.1 20.1 245.7 19.8 241.7 19.6C233.8 19.2 223.6 19.1 214.6 21C196.2 24.7 186.8 31.8 172.3 42.5L163 48.5C159.8 50.3 156.6 52.1 153.8 54.3C147.8 58.7 143.1 64.6 141 75.1H140.9C138.6 86.8 141 100.9 145.8 113.9C145.7 113.8 145.7 113.8 145.6 113.7C138.8 107.3 129.8 99.5 121.8 94.6L120.8 94C99.5 81.2 85.1 72.5 59.2 74.9L58.4 75C50.2 75.9 41.2 79.3 33.7 82.5C29.9 84.1 26.5 85.7 24.1 86.9C22.9 87.5 21.9999 88 21.2999 88.3C20.9999 88.5 20.7 88.6 20.5 88.7C20.4 88.7 20.2999 88.8 20.2999 88.8C20.2999 88.8 20.3 88.8 20.2 88.8C20.2 88.8 20.2 88.8 21.6 91.4C23 94 23 94 23 94C23 94 23.1 93.9 23.2 93.9C23.4 93.8 23.6 93.7 23.9 93.5C24.5 93.2 25.4 92.7 26.6 92.1C28.9 91 32.0999 89.4 35.7999 87.9C43.2999 84.7 51.8 81.7 59.1 81L59.7999 80.9C83.5 78.7 97.0999 86.7 118.4 99.6L118.7 99.7C126.2 104.2 134.7 111.6 141.5 118C144.9 121.2 147.9 124 149.8 126.2C150.9 127.5 152.2 129 152.9 130C155.6 134.1 158.2 137.9 160.8 141.4C167 149.3 170.7 156.1 172.8 162.9C174.9 169.7 175.4 176.8 175 185.3C174.9 187.5 174.6 189.7 174.2 191.9C173.3 196.6 172 201.4 170.5 207.4C169.4 211.8 168.3 216.8 167.5 222.4C167.4 222.3 167.4 222.2 167.3 222.2C164.6 218.2 161.1 213.3 158 209.7C148.4 198.8 137.9 194.7 127 191.9C116 189.1 105.2 187.6 93.1 181.8C85.1 178 75.2999 171.5 67.2999 166.1C63.2999 163.3 59.9 160.8 57.4 159C56.2 158.1 55.2 157.3 54.5 156.8C54.2 156.5 53.9 156.3 53.7 156.2C53.6 156.1 53.5 156.1 53.5 156C53.5 156 53.5 156 51.7 158.4C49.8 160.7 49.7999 160.7 49.7999 160.7C49.7999 160.7 49.8 160.7 49.9 160.7C49.9 160.7 50 160.8 50.1 160.9C50.3 161 50.5 161.2 50.9 161.5C51.6 162 52.5999 162.8 53.7999 163.7C56.2999 165.6 59.7999 168.1 63.7999 170.9C71.7999 176.5 82 183.2 90.5 187.2C103.2 193.3 115.2 195.1 125.5 197.7C135.8 200.3 144.8 203.9 153.3 213.5C156.2 216.8 159.7 221.7 162.4 225.6C163.7 227.5 164.8 229.3 165.6 230.5C165.9 230.9 166.1 231.3 166.3 231.7C165.4 241.6 165.1 253.5 166.3 268.4L172.3 267.9C171.1 252.9 171.4 241 172.4 231.3L172.6 229.4C173.5 221.2 174.9 214.7 176.3 208.8C177.6 203.4 179 198.3 179.9 193.7C180 193.6 180.1 193.4 180.2 193.2C180.5 192.7 180.9 192 181.4 191C182.4 189.2 183.9 186.6 185.7 183.8C189.3 178.2 193.8 171.8 198.2 167.7C203.2 163.2 208.3 160.6 213.7 158.5C219 156.3 224.9 154.2 231.3 149.9C240 143.9 244.9 135.9 249.5 129.5C254.2 123 258.9 117.9 267.5 115.8C274.6 114 282.4 115.2 288.7 116.9C291.8 117.8 294.4 118.7 296.3 119.5C297.2 119.9 298 120.2 298.4 120.4L299.3 120.8Z" fill="#FFA347"/>
<path d="M228.2 357.6H110.3L89.5 276.7C89.3 276.1 88.4 272.4 91 269C93.7 265.3 98.4 265.2 98.6 265.2H238C238.2 265.2 243.6 265.2 246.2 269.1C248.3 272.3 247.7 275.1 247.5 275.7L228.2 357.6ZM113.4 353.6H225L243.7 274.5C243.7 274.5 244.1 273 242.9 271.3C241.8 269.6 239 269.2 238.1 269.2H98.7C98.7 269.2 95.9 269.3 94.3 271.4C92.8 273.4 93.4 275.6 93.4 275.6V275.7L113.4 353.6Z" fill="#87749A"/>
<g opacity="0.6">
<path d="M222.2 282.7H113.2V285.7H222.2V282.7Z" fill="#87749A"/>
</g>
</g>
<defs>
<linearGradient id="paint0_linear_1104_182" x1="12.8354" y1="179.993" x2="147.605" y2="181.302" gradientUnits="userSpaceOnUse">
<stop stop-color="#31D5DB"/>
<stop offset="1" stop-color="#1A7275"/>
</linearGradient>
<linearGradient id="paint1_linear_1104_182" x1="-18.1156" y1="81.1038" x2="123.158" y2="91.9807" gradientUnits="userSpaceOnUse">
<stop stop-color="#31D5DB"/>
<stop offset="1" stop-color="#1A7275"/>
</linearGradient>
<linearGradient id="paint2_linear_1104_182" x1="347.747" y1="98.1324" x2="198.621" y2="170.728" gradientUnits="userSpaceOnUse">
<stop stop-color="#31D5DB"/>
<stop offset="1" stop-color="#1A7275"/>
</linearGradient>
<linearGradient id="paint3_linear_1104_182" x1="291.573" y1="-18.6985" x2="177.825" y2="51.0127" gradientUnits="userSpaceOnUse">
<stop stop-color="#31D5DB"/>
<stop offset="1" stop-color="#1A7275"/>
</linearGradient>
<clipPath id="clip0_1104_182">
<rect width="320" height="358" fill="white"/>
</clipPath>
</defs>
</svg>
